<?xml version="1.0" encoding="utf-8"?>
<!-- Generator: Adobe Illustrator 23.0.1, SVG Export Plug-In . SVG Version: 6.00 Build 0)  -->
<svg version="1.1" id="Layer_1" xmlns="http://www.w3.org/2000/svg" xmlns:xlink="http://www.w3.org/1999/xlink" x="0px" y="0px"
	 viewBox="0 0 512 512" style="enable-background:new 0 0 512 512;" xml:space="preserve">
<style type="text/css">
	.st0{fill:#FFFFFF;}
</style>
<g>
	<g>
		<path class="st0" d="M512,273c0-10.9-8.1-19.8-18.6-21.3c-0.3-8.3-1.7-24.4-7.6-42.5c-1.3-3.9-5.5-6.1-9.5-4.8
			c-3.9,1.3-6.1,5.5-4.8,9.5c5.2,15.8,6.6,29.9,6.9,37.6H245.2c-9.9,0.3-9.9,14.7,0,15h245.3c8.6,0.3,8.6,12.7,0,13H166.1
			c-8.6-0.3-8.6-12.7,0-13h44c9.9-0.3,9.9-14.7,0-15h-31.9c1.3-30.9,16.4-124,150.1-124c60.9,0,104.3,19.1,129,56.7
			c2.3,3.5,6.9,4.4,10.4,2.1s4.4-6.9,2.1-10.4c-31.9-47.1-81.7-62.9-141.5-63.4c-34.4,0-64.2,5.9-88.6,17.6
			c-52.9,23.9-75.8,80.3-76.5,121.6c-18.5,2.5-25.1,26.2-10.7,37.9c-14.2,15.3-8.3,40.9,10.7,48.7c0,0.4-0.1,0.8-0.1,1.2v21.7
			c0,21.1,17.2,38.3,38.3,38.3h148.4c9.9-0.3,9.9-14.7,0-15H201.5c-12.9,0-23.3-10.5-23.3-23.3v-20.4h300.3v20.4
			c0,12.9-10.5,23.3-23.3,23.3h-69.5c-9.9,0.3-9.9,14.7,0,15h69.5c21.1,0,38.3-17.2,38.3-38.3v-21.7c0-0.4,0-0.8-0.1-1.2
			c19-7.9,24.9-33.4,10.7-48.7C508.9,285.7,512,279.7,512,273L512,273z M481.3,325.8h-306c-20.8-0.9-20.8-30.5,0-31.3h306
			C502.1,295.3,502.1,325,481.3,325.8z"/>
		<path class="st0" d="M7.4,151.2H152c9.9-0.3,9.9-14.7,0-15H7.4C-2.5,136.6-2.5,150.9,7.4,151.2z"/>
		<path class="st0" d="M125.8,191.2H7.4c-9.9,0.3-9.9,14.7,0,15h118.3C135.7,205.9,135.7,191.6,125.8,191.2z"/>
		<path class="st0" d="M7.4,261.2h88c9.9-0.3,9.9-14.7,0-15h-88C-2.5,246.6-2.5,260.9,7.4,261.2z"/>
		<path class="st0" d="M7.4,316.2h88c9.9-0.3,9.9-14.7,0-15h-88C-2.5,301.6-2.5,315.9,7.4,316.2z"/>
		<path class="st0" d="M120.9,356.2H7.4c-9.9,0.3-9.9,14.7,0,15h113.4C130.8,370.9,130.8,356.6,120.9,356.2z"/>
		<path class="st0" d="M279,164.7c2.3,0,4.6-1.1,6.1-3.1c2.4-3.4,1.7-8-1.7-10.5l-8.1-5.8c-8.3-5.5-16.6,6.1-8.8,12.2l8.1,5.8
			C275.9,164.3,277.4,164.7,279,164.7z"/>
		<path class="st0" d="M388.6,163.9c3.1-2.7,3.4-7.5,0.7-10.6c-2.7-3.1-7.5-3.4-10.6-0.7l-7.5,6.6c-3.1,2.7-3.4,7.5-0.7,10.6
			c2.7,3.1,7.5,3.4,10.6,0.7L388.6,163.9z"/>
		<path class="st0" d="M332.8,163.8l-10,0.7c-4.1,0.3-7.3,3.9-7,8c0.3,4.1,3.9,7.3,8,7l10-0.7c4.1-0.3,7.3-3.9,7-8
			C340.5,166.6,336.9,163.5,332.8,163.8z"/>
		<path class="st0" d="M374.7,198.4l-7.5-6.6c-3.1-2.7-7.9-2.4-10.6,0.7c-2.7,3.1-2.4,7.9,0.7,10.6l7.5,6.6
			c3.1,2.7,7.9,2.4,10.6-0.7C378.1,205.9,377.8,201.2,374.7,198.4z"/>
		<path class="st0" d="M278.4,208.3c1,0,2-0.2,3-0.6l9.2-4c9-4.3,3.3-17.4-6-13.8l-9.2,4C268,197.3,270.4,208.3,278.4,208.3z"/>
		<path class="st0" d="M233.1,177.5l-8,6c-3.3,2.5-4,7.2-1.5,10.5c2.5,3.3,7.2,4,10.5,1.5l8-6c3.3-2.5,4-7.2,1.5-10.5
			C241.1,175.7,236.4,175,233.1,177.5z"/>
		<path class="st0" d="M425.6,177.5c-3.3-2.5-8-1.8-10.5,1.5c-2.5,3.3-1.8,8,1.5,10.5l8,6c3.3,2.5,8,1.8,10.5-1.5
			c2.5-3.3,1.8-8-1.5-10.5L425.6,177.5z"/>
	</g>
</g>
</svg>
