<svg id="Capa_1" enable-background="new 0 0 512 512" height="512" viewBox="0 0 512 512" width="512" xmlns="http://www.w3.org/2000/svg"><g><path d="m347.389 487.239-.715-.834c-16.556-19.316-25.674-43.965-25.674-69.405 0-8.284-6.716-15-15-15h-100c-8.284 0-15 6.716-15 15 0 25.44-9.118 50.089-25.675 69.405l-.714.833c-2.376 2.772-3.609 6.247-3.61 9.761h189.998c-.001-3.513-1.234-6.988-3.61-9.76z" fill="#453d83"/><path d="m347.389 487.239-.715-.834c-16.556-19.316-25.674-43.965-25.674-69.405 0-8.284-6.716-15-15-15h-50v95h94.999c-.001-3.514-1.234-6.989-3.61-9.761z" fill="#2d2755"/><path d="m366 512h-220c-8.284 0-15-6.716-15-15s6.716-15 15-15h220c8.284 0 15 6.716 15 15s-6.716 15-15 15z" fill="#5f55af"/><path d="m366 512c8.284 0 15-6.716 15-15s-6.716-15-15-15h-110v30z" fill="#453d83"/><path d="m467 432h-422c-24.813 0-45-20.187-45-45v-280c0-24.813 20.187-45 45-45h422c24.813 0 45 20.187 45 45v280c0 24.813-20.187 45-45 45z" fill="#5f55af"/><path d="m467 62h-211v370h211c24.813 0 45-20.187 45-45v-280c0-24.813-20.187-45-45-45z" fill="#453d83"/><g><g><path d="m482 107c0-8.271-6.729-15-15-15h-422c-8.271 0-15 6.729-15 15v235h81l145-20 145 20h81z" fill="#9ee2f8"/></g><path d="m467 92h-211v230l145 20h81v-235c0-8.271-6.729-15-15-15z" fill="#6aa9ff"/></g><path d="m401 342h-290v-327c0-8.284 6.716-15 15-15h260c8.284 0 15 6.716 15 15z" fill="#f6f9f9"/><path d="m401 342h-145v-342h130c8.284 0 15 6.716 15 15z" fill="#e2dff4"/><g><path d="m311 174.773v105.227c0 11.98 13.352 19.126 23.32 12.481l21.68-14.453 21.68 14.453c9.968 6.646 23.32-.5 23.32-12.481v-105.227z" fill="#ff8859"/><g><g><path d="m356 174.773v103.254l21.679 14.453c9.969 6.646 23.321-.499 23.321-12.48v-105.227z" fill="#ff5c5c"/></g></g><circle cx="356" cy="150" fill="#ff9f22" r="50"/><g><path d="m356 100v100c27.614 0 50-22.386 50-50s-22.386-50-50-50z" fill="#dd7d00"/></g><path d="m356 215c-35.841 0-65-29.159-65-65s29.159-65 65-65 65 29.159 65 65-29.159 65-65 65zm0-100c-19.299 0-35 15.701-35 35s15.701 35 35 35 35-15.701 35-35-15.701-35-35-35z" fill="#ffde55"/><g><path d="m356 85v30c19.299 0 35 15.701 35 35s-15.701 35-35 35v30c35.841 0 65-29.159 65-65s-29.159-65-65-65z" fill="#ff9f22"/></g></g><g fill="#d5d3ea"><path d="m241 101h-55c-8.284 0-15-6.716-15-15s6.716-15 15-15h55c8.284 0 15 6.716 15 15s-6.716 15-15 15z"/><path d="m241 161h-55c-8.284 0-15-6.716-15-15s6.716-15 15-15h55c8.284 0 15 6.716 15 15s-6.716 15-15 15z"/><path d="m241 221h-55c-8.284 0-15-6.716-15-15s6.716-15 15-15h55c8.284 0 15 6.716 15 15s-6.716 15-15 15z"/></g></g></svg>