<?xml version="1.0" encoding="utf-8"?>
<!-- Generator: Adobe Illustrator 23.0.1, SVG Export Plug-In . SVG Version: 6.00 Build 0)  -->
<svg version="1.1" id="Layer_1" xmlns="http://www.w3.org/2000/svg" xmlns:xlink="http://www.w3.org/1999/xlink" x="0px" y="0px"
	 viewBox="0 0 634 835.5" style="enable-background:new 0 0 634 835.5;" xml:space="preserve">
<style type="text/css">
	.st0{opacity:0.4;}
	.st1{fill:#DFEAF4;}
	.st2{fill:#D76852;}
	.st3{fill:#C6523E;}
	.st4{fill:#9B3C2C;}
	.st5{fill:#603131;}
	.st6{fill:#C0CF5A;}
	.st7{fill:none;stroke:#96BC2E;stroke-linecap:round;stroke-linejoin:round;}
	.st8{fill:#FCEEB7;}
	.st9{fill:#FFDD50;}
	.st10{fill:#BA4936;}
	.st11{fill:#FFFFFF;}
	.st12{opacity:0.25;}
	.st13{fill:#26CA40;}
	.st14{fill:#68BBEA;}
	.st15{fill:#4FB0DB;}
	.st16{fill:#FFCBA6;}
	.st17{fill:#F9B78A;}
	.st18{fill:#E59A67;}
	.st19{fill:#35A6D8;}
	.st20{opacity:0.4;fill:#F9B78A;enable-background:new    ;}
	.st21{fill:#4296BA;}
	.st22{fill:#BDD4E5;}
	.st23{opacity:0.7;}
	.st24{fill:#7F4B4B;}
	.st25{fill:#82C9E8;}
	.st26{fill:#FACA92;}
	.st27{fill:#3692BA;}
	.st28{fill:none;stroke:#4296BA;stroke-width:2;stroke-linecap:round;stroke-miterlimit:10;}
	.st29{fill:#FFE7D7;}
</style>
<title>Asset 1</title>
<g>
	<g id="Layer_1-2">
		<g class="st0">
			<path class="st1" d="M215.2,697c5.8-19.1-8-39.4-25.2-49.4s-37.6-13.1-56.5-19.3C59,603.7,8,522.2,18.4,444.5
				c2.3-17,7.6-34.5,19.9-46.5c9.5-9.3,22.2-14.5,33.2-22c20.5-13.8,34.7-35,48.3-55.7s28-41.8,48.6-55.4s49.6-17.9,69.8-3.6
				c12.5,8.9,20.1,23.5,32.7,32.2c23,15.9,54.1,7.8,82.1,7.9c20,0.1,39.8,4.8,58.6,11.6c60.6,21.9,113.3,67.2,140.1,125.7
				s26,130.1-5.8,186.1s-95.3,93.8-159.7,91c-22.5-1-45.1-6.8-63.5-19.7"/>
		</g>
		<path class="st2" d="M398,724c6,68-38.8,110.5-96,110.5S198.5,782.2,198.5,725c0-6.3,0.6-46.4,1.6-52.2
			c8.7-47.3,51-45.3,101.9-45.3c52.6,0,66.4-46.4,73,3.5C375.6,635.4,397.6,719.4,398,724z"/>
		<path class="st3" d="M302,834.5c-57.2,0-103.5-52.3-103.5-109.5c0-1.4,0-4.7,0.1-8.8c2.2,55.5,47.7,105.3,103.4,105.3
			c51.8,0,93.4-34.9,96.4-92C401.5,794.3,357.6,834.5,302,834.5z"/>
		<path class="st4" d="M297,772.3V834c0,0.8,0.7,1.5,1.5,1.5s1.5-0.7,1.5-1.5v-61.8c0-0.8-0.7-1.5-1.5-1.5S297,771.4,297,772.3z"/>
		<path class="st4" d="M281.1,759.5v27.2c0,3.8-0.2,7.5,1.5,10.9c3.1,6.1,9.4,8.8,16,8.8c0.8,0,1.4-0.6,1.4-1.4
			c0-0.8-0.6-1.4-1.4-1.4c-7.5,0-14.3-4.3-14.7-12.4c-0.1-3.1,0-6.3,0-9.5v-22.2c0-0.8-0.6-1.4-1.4-1.4
			C281.7,758.1,281.1,758.7,281.1,759.5L281.1,759.5z"/>
		<path class="st5" d="M286.9,666.7c-32.1,9.6-65,18.9-98.8,19.9c-30.6,0.9-60.8-6-87.5-21.2c-14-8.1-26.8-18.2-37.8-30
			c-2-2.1-5.2,1.1-3.2,3.2c20,21.4,45.2,37.1,73.2,45.6c31.5,9.5,64.6,8.3,96.6,2.1c19.9-3.8,39.3-9.4,58.7-15.2
			C290.8,670.2,289.6,665.9,286.9,666.7L286.9,666.7z"/>
		<path class="st5" d="M58.9,684.5c10.7-9.9,26-15.8,40.5-15c1.9,0.1,1.9-2.9,0-3c-15.3-0.9-31.4,5.4-42.6,15.8
			C55.4,683.8,57.5,685.9,58.9,684.5z"/>
		<path class="st5" d="M91.7,697.7c10.7-9.9,26-15.8,40.5-15c1.9,0.1,1.9-2.9,0-3c-15.3-0.9-31.4,5.4-42.6,15.8
			C88.2,696.9,90.3,699,91.7,697.7L91.7,697.7z"/>
		<path class="st5" d="M154,706.5c10.4-10.2,25.6-16.5,40.1-16c1.9,0.1,1.9-2.9,0-3c-15.3-0.5-31.3,6.1-42.2,16.8
			C150.5,705.7,152.6,707.8,154,706.5L154,706.5z"/>
		<path class="st5" d="M155.4,641.5c-8.3,13.2-11.4,29-8.8,44.4c0.4,1.9,3.2,1.1,2.9-0.8c-2.4-14.6,0.6-29.6,8.5-42.1
			C159.1,641.4,156.4,639.9,155.4,641.5L155.4,641.5z"/>
		
			<ellipse transform="matrix(0.5029 -0.8644 0.8644 0.5029 -518.3011 353.5264)" class="st6" cx="48.2" cy="627.3" rx="21.5" ry="30.5"/>
		<path class="st7" d="M31.8,615.7L31.8,615.7c10.2,3.8,19.2,10.1,26.3,18.3l2.8,3.2"/>
		<path class="st7" d="M34,630.6c0,0-2-9,5-11.5"/>
		<path class="st7" d="M53.5,613.6c0,0-9.2,1.3-9.1,8.6"/>
		<path class="st7" d="M43.5,636.9c0,0-1.9-9,5-11.5"/>
		
			<ellipse transform="matrix(0.5582 -0.8297 0.8297 0.5582 -454.4741 413.4669)" class="st6" cx="161" cy="633.5" rx="30.5" ry="21.5"/>
		<path class="st7" d="M171.9,621.2L171.9,621.2c-8,7.3-14.1,16.5-17.6,26.8l-1.4,4"/>
		<path class="st7" d="M175.5,635.8c0,0-1.6-9.1-8.9-8.8"/>
		<path class="st7" d="M151,627.3c0,0,9-2.2,11.7,4.6"/>
		<path class="st7" d="M169,645.2c0,0-1.6-9.1-8.9-8.8"/>
		
			<ellipse transform="matrix(0.7853 -0.6191 0.6191 0.7853 -417.3022 241.695)" class="st6" cx="139.8" cy="722.5" rx="30.5" ry="21.5"/>
		
			<ellipse transform="matrix(0.8002 -0.5997 0.5997 0.8002 -409.2977 188.9388)" class="st6" cx="78.9" cy="708.8" rx="30.5" ry="21.5"/>
		<path class="st7" d="M69.6,721.8L69.6,721.8c4.5-9.9,11.3-18.5,20-25.1l3.4-2.6"/>
		<path class="st7" d="M84.6,720.7c0,0-9.2,1.3-11.2-5.7"/>
		<path class="st7" d="M68.8,700.1c0,0,0.7,9.2,8,9.7"/>
		<path class="st7" d="M91.4,711.6c0,0-9.2,1.3-11.2-5.7"/>
		<path class="st7" d="M129.7,736.5L129.7,736.5c4.5-9.9,11.3-18.5,20-25.1l3.4-2.6"/>
		<path class="st7" d="M144.7,735.3c0,0-9.2,1.3-11.2-5.7"/>
		<path class="st7" d="M129,714.8c0,0,0.7,9.2,8,9.7"/>
		<path class="st7" d="M151.6,726.3c0,0-9.2,1.3-11.2-5.7"/>
		<polygon class="st8" points="106.5,156.2 105.1,163.8 60.7,155.5 62.1,147.9 		"/>
		<polygon class="st8" points="194.6,78.5 186.9,79.3 182.2,34.5 189.8,33.6 		"/>
		<circle class="st8" cx="197.6" cy="179.4" r="126.4"/>
		<circle class="st9" cx="197.6" cy="179.4" r="95.5"/>
		
			<rect x="109" y="53.8" transform="matrix(0.8403 -0.5421 0.5421 0.8403 -25.3292 73.9666)" class="st8" width="7.7" height="52.4"/>
		
			<rect x="155.3" y="29.1" transform="matrix(0.9321 -0.3621 0.3621 0.9321 -9.2279 61.3673)" class="st8" width="7.7" height="52.4"/>
		
			<rect x="77.4" y="101.5" transform="matrix(0.3464 -0.9381 0.9381 0.3464 -66.7024 159.7273)" class="st8" width="7.7" height="52.4"/>
		<polygon class="st8" points="123.6,119.3 119.2,125.7 82.2,99.9 86.5,93.6 		"/>
		<polygon class="st8" points="152,95.4 145,98.6 126.2,57.6 133.1,54.4 		"/>
		<circle class="st2" cx="527.5" cy="628.5" r="75.5"/>
		<path class="st10" d="M594.5,621.5c2.6,27.8-11.8,54.8-36.9,67.4c-33.3,16.6-73.8,3.1-90.4-30.3c-16.6-33.3-3.1-73.8,30.3-90.4
			c11-5.5,23.3-7.9,35.5-6.9C565.1,563.9,590.9,589.7,594.5,621.5c0.2,1.4,2.4,1.4,2.3,0c-3.3-28.5-23.5-52.9-51.5-60.3
			c-37.2-9.7-75.3,12.5-85,49.7c-9.7,37.2,12.5,75.3,49.7,85c12.4,3.3,25.5,3,37.8-0.7c31.7-9.6,52-40.9,49-73.7
			C596.6,620,594.4,620,594.5,621.5z"/>
		<circle class="st11" cx="527.5" cy="628.5" r="58.5"/>
		<g class="st12">
			<path class="st2" d="M585.6,621.6c0.2,2,0.3,4,0.3,6c-6.5-31.6-37.5-52-69.1-45.5c-27.1,5.6-46.6,29.5-46.7,57.2
				c-0.4-2-0.7-3.9-0.9-5.9c-3.6-32.1,19.5-61,51.6-64.6s61,19.5,64.6,51.6C585.5,620.8,585.6,621.2,585.6,621.6L585.6,621.6z"/>
		</g>
		<g class="st12">
			<circle class="st2" cx="529.6" cy="632.5" r="8.5"/>
		</g>
		<path class="st5" d="M492.9,607.3l36,27.4c0.7,0.4,1.6,0.2,2.1-0.6c0.1-0.2,0.2-0.5,0.2-0.7l-2.7-26.4c-0.2-1.9-3.2-1.9-3,0
			l2.7,26.4l2.3-1.3l-36-27.4C492.9,603.5,491.4,606.1,492.9,607.3L492.9,607.3z"/>
		<path class="st11" d="M48.2,552.8L75.1,436c1.7-7.3,9-11.9,16.3-10.2L265.6,466c7.3,1.7,11.9,9,10.2,16.3L248.9,599
			c-1.7,7.3-9,11.9-16.3,10.2L58.4,569.1C51.1,567.4,46.5,560.1,48.2,552.8z"/>
		<rect x="122" y="451" transform="matrix(0.2067 -0.9784 0.9784 0.2067 -380.1478 510.1161)" class="st1" width="5" height="77"/>
		<rect x="120" y="462" transform="matrix(0.2067 -0.9784 0.9784 0.2067 -392.4983 516.8849)" class="st1" width="5" height="77"/>
		<rect x="118" y="473" transform="matrix(0.2067 -0.9784 0.9784 0.2067 -404.8488 523.6538)" class="st1" width="5" height="77"/>
		<circle class="st2" cx="88.5" cy="439.5" r="3.5"/>
		<circle class="st9" cx="98.5" cy="441.5" r="3.5"/>
		<circle class="st13" cx="109.5" cy="444.5" r="3.5"/>
		<path class="st1" d="M64.8,445.7l61.8,13.9l98.5,22.1l22.6,5.1c0.9,0.2,1.3-1.2,0.4-1.4l-61.8-13.9l-98.5-22.1l-22.7-5.1
			C64.3,444.1,63.9,445.5,64.8,445.7z"/>
		<path class="st11" d="M352.3,420.7L507,357.3c9.9-4.1,21.2,0.7,25.3,10.6L573.3,468c4.1,9.9-0.7,21.2-10.6,25.3L408,556.7
			c-9.9,4.1-21.2-0.7-25.3-10.6L341.7,446C337.6,436.1,342.4,424.8,352.3,420.7z"/>
		
			<rect x="451.5" y="420.8" transform="matrix(0.932 -0.3624 0.3624 0.932 -120.1201 206.3609)" class="st1" width="77" height="5"/>
		
			<rect x="455.2" y="431.4" transform="matrix(0.932 -0.3624 0.3624 0.932 -123.6864 208.4388)" class="st1" width="77" height="5"/>
		<rect x="459" y="441.9" transform="matrix(0.932 -0.3624 0.3624 0.932 -127.244 210.5172)" class="st1" width="77" height="5"/>
		<path class="st1" d="M541.3,369l-58.8,23.7l-93.7,37.8l-21.5,8.7c-0.9,0.4-0.5,1.8,0.4,1.5l58.8-23.7l93.7-37.8l21.5-8.7
			C542.6,370.1,542.2,368.7,541.3,369L541.3,369z"/>
		<path class="st14" d="M281.9,393.4c-43.1,21.3-71.1,65.6-81.9,113.6s-11.1,97.2-5.5,146.2c4,35.3,10.9,74.4,38.3,95.9
			c18.7,14.7,42,21.1,65.3,23.9c16.9,1.9,34,1,50.7-2.7c0,0,26.3-2.6,41.9-32.8c7.1-12.2,9.6-26.7,11.6-40.8
			c8.8-63.2,10-127.2,3.5-190.6c-3-29.2-8.6-60.3-28.6-81.2c-17.3-18-42.1-25.1-65.8-31.6"/>
		<path class="st15" d="M402.4,696.8c-2,14.2-4.5,28.6-11.6,40.8c-15.6,30.2-41.9,32.8-41.9,32.8c-16.6,3.6-33.7,4.5-50.7,2.6
			c-23.3-2.8-46.6-9.3-65.3-23.9c-6.8-5.4-12.6-11.9-17.1-19.3c17.3,11,37.6,16.3,58,18.7c16.9,1.9,34,1,50.7-2.7
			c0,0,26.3-2.6,41.9-32.8c7.1-12.2,9.6-26.7,11.6-40.8c8.8-63.2,10-127.2,3.5-190.6c-2.5-23.8-6.6-48.9-19-68.7
			c5.4,3.4,10.4,7.4,14.8,12c20,20.9,25.6,52,28.6,81.2C412.3,569.6,411.2,633.6,402.4,696.8z"/>
		<circle class="st16" cx="434.3" cy="764.7" r="36"/>
		<path class="st14" d="M371.3,484.5c26,28.3,40.4,66,45.4,104.1s1.5,76.9-4.7,114.9c-1.9,11.5-3.6,24.5,3.4,33.7
			c6,7.9,16.6,10.5,26.4,12.6c8.1,1.7,17.2,3.2,24.3-1.2c8.3-5.2,10.3-16.3,11.2-26c5.1-52,3.8-105.2-9.7-155.8s-39.6-98.5-78.9-133
			C378.2,424.6,359,411,339,409"/>
		<path class="st15" d="M383.6,485c1.7,0,3.4,0.7,4.6,2c24.9,28,38.6,64.8,43.6,102c5.1,38.2,1.5,77-4.7,115
			c-1.9,11.5-3.6,24.5,3.4,33.7c6,7.9,16.6,10.5,26.4,12.6c1.3,0.3,2.5,0.5,3.8,0.7c-6.2,1.8-13.3,0.6-19.8-0.7
			c-9.8-2-20.3-4.6-26.4-12.6c-7-9.3-5.3-22.2-3.4-33.7c6.2-38,9.8-76.7,4.7-114.9c-4.5-33.8-16.3-67.3-37.1-94.2
			c-2.1-2.7-1.5-6.6,1.2-8.6C380.9,485.5,382.2,485,383.6,485L383.6,485z"/>
		<path class="st16" d="M275.8,363l-3.8,34.6c-0.5,4.8-1,9.9,1.4,14c2.9,5,8.9,7.1,14.6,8.1c6.3,1.1,12.7,1.4,19.1,0.8
			c2.1-0.1,4.2-0.6,6.2-1.5c3.5-1.8,5.6-5.6,6.3-9.5s0.1-7.9-0.6-11.8c-2.6-15.6-6.3-31-11.1-46.1"/>
		<g class="st0">
			<path class="st17" d="M319.5,409.9c-0.7,3.9-2.8,7.7-6.3,9.5c-2,0.9-4.1,1.4-6.2,1.5c-6,0.6-12.1,0.3-18.1-0.6
				c1.4-1.4,2.7-2.8,3.9-4.3c14.2-17.7,19.6-41.9,15.1-64l0,0c4.8,15.1,8.5,30.5,11.1,46.2C319.6,402,320.2,406,319.5,409.9z"/>
		</g>
		<ellipse class="st5" cx="212.5" cy="143" rx="27.5" ry="27"/>
		<ellipse class="st5" cx="210.5" cy="118" rx="27.5" ry="27"/>
		<path class="st5" d="M363.3,35.3c0.6-6.6-0.1-13.3-2-19.7c9.4,8.6,19,17.5,25.4,28.6s9.2,25,4.3,36.8"/>
		<path class="st5" d="M342.7,31c-1.5-6.4-4.2-12.6-8-18c11.7,5.3,23.5,10.6,33.1,19.1s16.5,20.8,15.6,33.5"/>
		<path class="st5" d="M396.4,61.2c3.7-5.5,6.4-11.7,7.8-18.1c4,12.1,8.1,24.5,8.4,37.3s-4.1,26.3-14.1,34.3"/>
		<path class="st5" d="M380.4,47.5c1.8-6.4,2.4-13.1,1.7-19.7c7.6,10.3,15.4,20.7,19.6,32.8s4.4,26.3-2.6,37"/>
		<path class="st5" d="M244.5,41.3c-7.2-5.4-15.3-9.4-23.9-11.8c16.7-4.6,33.6-9.3,50.9-8.6s35.2,7.4,45.2,21.4"/>
		<path class="st5" d="M224.9,61.9c-8.5-2.9-29-3.3-37.9-2.9c14.4-9.6,40.6-20.2,57.1-25s35.7-4.1,49.7,6.2"/>
		<path class="st5" d="M297.9,22c-3.6-8.2-8.8-15.7-15.2-22c16.8,4.1,33.9,8.2,48.7,17.1s27.2,23.5,29.1,40.7"/>
		<path class="st5" d="M270.8,30.4c-6-6.7-13.2-12.1-21.3-16.1c17.2-1.4,34.8-2.8,51.6,1s33.2,13.8,40.4,29.5"/>
		<path class="st5" d="M424.6,113.9c3.9-4.4,7-9.6,9.1-15.1c2.1,11.2,4.3,22.7,2.9,34s-6.7,22.8-16.5,28.6"/>
		<path class="st5" d="M409.9,87.2c3-5.1,4.9-10.8,5.8-16.7c4.4,10.6,8.8,21.3,9.8,32.7s-2,23.7-10.4,31.4"/>
		<path class="st5" d="M434.5,150.1c5.6-2,10.8-4.9,15.3-8.8c-3.6,10.9-7.3,21.9-13.9,31.1s-17,16.7-28.4,17"/>
		<path class="st5" d="M430.4,131.8c4.7-3.6,8.7-8.1,11.7-13.2c0,11.4,0,23-3.5,33.9s-10.9,21.1-21.6,25"/>
		<path class="st16" d="M403.5,131.7c-6.9-20.9-20-40.3-38.8-51.7c-18.1-11-40.4-13.9-61.4-10.2c-15.5,1.2-30.7,5.3-44.6,12.1
			c-21.5,10.3-39.6,24.9-49.5,40.9c-6.7,11.7-9,16.7-10.5,26.4c-3.5,23.8,11.6,46.7,11.6,70.7c0,12.2-3.9,24-4.9,36.1
			c-1.6,19.8,4.5,39.5,14,56.9s22.3,32.8,34.9,48c8,9.6,17.1,19.9,29.5,21.6c11.9,1.6,23.1-5.1,32.9-11.9
			c28.5-19.9,55.4-43.7,71.5-74.6c9.6-18.6,15-39.1,18.4-59.8c2.1-13,3.4-26.1,4-39.3C411.6,174.9,410.4,152.5,403.5,131.7z"/>
		<path class="st17" d="M410.7,196.9c-0.6,13.2-1.9,26.3-4,39.3c-3.4,20.7-8.7,41.2-18.4,59.8c-16,30.9-42.9,54.8-71.4,74.6
			c-9.8,6.8-21.1,13.6-32.9,11.9c-2-0.3-3.9-0.8-5.8-1.5c6.8-2.2,13.3-6.3,19.2-10.5c28.5-19.9,55.5-43.7,71.4-74.6
			c9.6-18.6,15-39.1,18.4-59.8c2.1-13,3.4-26.1,4-39.3c1-22-0.3-44.4-7.2-65.2S364,91.4,345.2,80c-10.5-6.3-22.3-10.1-34.5-11.2
			c18.7-1.9,38,1.5,54,11.2c18.8,11.4,31.9,30.8,38.8,51.7S411.6,174.9,410.7,196.9z"/>
		<path class="st11" d="M261.7,291.7c0,0,21.7,15.3,48,6C309.7,297.7,281.6,345.1,261.7,291.7z"/>
		<ellipse class="st5" cx="251.8" cy="223.4" rx="5.8" ry="9.8"/>
		<ellipse class="st5" cx="322.2" cy="218.8" rx="5.8" ry="9.8"/>
		<path class="st18" d="M288.2,221.7c-0.2,7.4-2,14.6-5.5,21.1c-2.9,5.5-7.3,9.8-10.5,15c-6.4,10.1,3.7,18.2,11.8,22.5
			c1.7,0.9,3.2-1.7,1.5-2.6c-5.5-3-13.9-7.8-12.1-15.5c1.1-4.8,6.3-8.9,9-13c5.5-8.2,8.6-17.7,8.9-27.5c0-0.8-0.7-1.5-1.5-1.5
			S288.2,220.9,288.2,221.7L288.2,221.7z"/>
		<path class="st5" d="M304.2,199.8c7.7-1.3,15.8,0,23.1,2.7s14.2,6.8,20.7,11.1c0.7,0.5,1.6,0.9,2.3,0.4s0.4-1.7,0-2.5
			c-5.9-10.8-16.2-18.5-28.2-21.2c-5.7-1.3-12-1.2-16.8,2.1c-1.4,0.9-2.5,2.2-3.2,3.8c-0.6,1.6-0.3,3.4,0.9,4.6
			c1.2,1.1,3.1,1.1,4.2-0.1c0.1-0.1,0.1-0.1,0.2-0.2"/>
		<path class="st5" d="M267.9,196.6c-7.7-1.4-15.8-0.1-23.2,2.5s-14.2,6.6-20.8,11c-0.7,0.4-1.6,0.9-2.3,0.4s-0.4-1.7,0.1-2.5
			c6-10.7,16.3-18.4,28.4-21c5.7-1.2,12-1.1,16.8,2.2c1.4,0.9,2.5,2.2,3.1,3.8c0.6,1.6,0.2,3.4-1,4.6c-1.2,1.1-3.1,1-4.2-0.2
			c-0.1-0.1-0.1-0.1-0.2-0.2"/>
		<path class="st19" d="M45,255c0,0,11-32,72-35l9,55l-43,28"/>
		<circle class="st16" cx="69.3" cy="210.7" r="36"/>
		<path class="st17" d="M105.3,210.7c0.1,19.9-16,36.1-35.8,36.2c-12.9,0.1-24.9-6.8-31.3-18c17.2,10,39.3,4.2,49.3-13
			c6.5-11.2,6.5-25.1,0-36.3C98.5,186,105.3,197.9,105.3,210.7z"/>
		<path class="st14" d="M252,424c-57.8-51.8-111.7-129.5-134.7-203.7l0.6,0.6c-12.6,26.2-44.6,41.3-72.8,34.5
			C73.9,342.3,143,429.6,227,466"/>
		<path class="st17" d="M219.6,116c-6.1,8.1,0.2,27.6,9.9,30.8s20.2,0.4,30.2-1.3c17.4-2.9,36.3-9.4,53.4-5.5
			c13.4,3,28.2,10,31.5,23.3c0.7,3,0.9,6.2,2.1,9c3.7,8.5,16.4,9.6,24.1,4.4s11.4-14.5,14.4-23.3l-14.5-33.2l-51.8-18.8"/>
		<path class="st5" d="M406.8,198.4c-7.9,9.6-20.2,14.5-32.6,12.9c-3.8-0.5-7.7-1.8-10.4-4.5c-6-6.3-3.1-16.4-1.1-24.8
			c2.5-10.6,2.9-21.8-0.5-32.1s-11-19.5-21.2-23.3c-16.3-6.1-34.7,2.3-51.8-0.9c-9.3-1.8-18.2-7-27.6-5.8
			c-13.9,1.8-23.1,16.8-36.8,19.3c-8.5,1.6-17-1.9-25-5.3c3.7-17-8.8-33.7-8.7-51.1c0.1-13.7,8.2-26.5,19.1-34.8
			s24.3-12.7,37.7-15.4c44-9,89.8-2.3,129.5,18.9c9.3,5,18.3,10.9,25.4,18.6c6.8,7.4,11.6,16.3,15.8,25.4
			c10.1,22.4,16,47.2,13.3,71.6c-1.1,9.4-3.5,18.9-8.6,26.9s-13.2,14.4-22.6,15.8"/>
		
			<ellipse transform="matrix(0.2151 -0.9766 0.9766 0.2151 98.831 570.7484)" class="st16" cx="404.5" cy="223.9" rx="39.7" ry="27.9"/>
		<path class="st20" d="M431.7,229.9c-4.7,21.4-20.7,36.1-35.8,32.8c-5.8-1.3-10.6-5-14-10.4c1.3,0.6,2.6,1,4,1.4
			c15.1,3.3,31.1-11.4,35.8-32.8c2.9-13.2,0.9-25.9-4.7-34.5C429.5,192.1,436,210.4,431.7,229.9z"/>
		<path class="st18" d="M389.8,236.8c3.2-12.5,11.1-30,27.2-25.8c0.8,0.2,1.6-0.3,1.8-1.1s-0.3-1.6-1.1-1.8
			c-17.8-4.6-27.3,13.7-30.9,27.9C386.5,237.9,389.4,238.7,389.8,236.8L389.8,236.8z"/>
		<path class="st18" d="M397.4,217.4c4.2,3.4,7.2,8.1,8.5,13.4c0.5,1.9,3.4,1.1,2.9-0.8c-1.5-5.8-4.7-10.9-9.3-14.7
			C398,214.1,395.9,216.2,397.4,217.4L397.4,217.4z"/>
		<path class="st11" d="M211.5,153.6c0.1-1.5,0.1-2.9,0.3-4.4c0-1.7-1.3-3-3-3c-1.6,0-3,1.4-3,3c-0.2,1.4-0.3,2.9-0.3,4.4
			c0,1.7,1.3,3,3,3C210.1,156.6,211.4,155.3,211.5,153.6z"/>
		<path class="st11" d="M215.1,174.1c-1.3-3.2-2.2-6.4-2.9-9.8c-0.8-3.8-6.5-2.2-5.8,1.6c0.7,3.3,1.6,6.6,2.9,9.8
			c0.5,1.6,2.1,2.5,3.7,2.1C214.5,177.4,215.8,175.7,215.1,174.1L215.1,174.1z"/>
		<path class="st11" d="M218.7,506l2.7-10c1-3.7-4.8-5.3-5.8-1.6l-2.7,10C211.9,508.1,217.6,509.7,218.7,506L218.7,506z"/>
		<path class="st11" d="M225.3,485.1l0.3-0.8c0.2-0.8,0.1-1.6-0.3-2.3c-0.8-1.4-2.7-1.9-4.1-1.1c-0.7,0.4-1.2,1-1.4,1.8l-0.3,0.8
			c-0.2,0.8-0.1,1.6,0.3,2.3c0.8,1.4,2.7,1.9,4.1,1.1C224.6,486.5,225.1,485.9,225.3,485.1z"/>
		<path class="st21" d="M417.2,589.7l23.5-7.5c0.9-0.3,0.5-1.7-0.4-1.4l-23.5,7.5C415.9,588.6,416.3,590,417.2,589.7z"/>
		<path class="st21" d="M416.3,590.2l15,4c0.4,0.1,0.8-0.2,0.9-0.6c0.1-0.4-0.1-0.7-0.5-0.8l-15-4c-0.4-0.1-0.8,0.2-0.9,0.6
			C415.8,589.7,416,590.1,416.3,590.2z"/>
		<circle class="st22" cx="576" cy="540" r="8"/>
		<circle class="st22" cx="64" cy="414" r="8"/>
		<circle class="st22" cx="22.5" cy="472.5" r="22.5"/>
		<g class="st23">
			<circle class="st1" cx="430" cy="302" r="8"/>
			<circle class="st1" cx="388.5" cy="360.5" r="22.5"/>
		</g>
		<circle class="st22" cx="611.5" cy="508.5" r="22.5"/>
		
			<ellipse transform="matrix(0.7071 -0.7071 0.7071 0.7071 19.9335 187.337)" class="st24" cx="236.1" cy="69.6" rx="30" ry="17.9"/>
		<circle class="st24" cx="278" cy="54" r="6"/>
		<ellipse class="st24" cx="291" cy="30.5" rx="9" ry="8.5"/>
		
			<ellipse transform="matrix(0.3005 -0.9538 0.9538 0.3005 -310.117 564.2852)" class="st25" cx="229.7" cy="493.6" rx="30" ry="17.9"/>
		<circle class="st25" cx="235.2" cy="538" r="6"/>
		
			<ellipse transform="matrix(0.8869 -0.4619 0.4619 0.8869 -233.9045 165.1412)" class="st25" cx="220.4" cy="560.3" rx="8.5" ry="9"/>
		<circle class="st26" cx="45.4" cy="340.9" r="14.5"/>
		<circle class="st26" cx="16.9" cy="302.5" r="7.5"/>
		<path class="st14" d="M576.9,220.6l-86.8-26.1c-13-3.9-26.8,3.5-30.7,16.5l-12.7,42.1c-3.9,13,3.4,26.7,16.5,30.7c0,0,0,0,0,0
			l8.8,2.7l3.2,23c0.5,3.6,3.8,6.1,7.4,5.6c1.5-0.2,2.9-0.9,3.9-2l16-17.4l47.5,14.3c13,3.9,26.7-3.4,30.7-16.5c0,0,0,0,0,0
			l12.7-42.1C597.3,238.2,589.9,224.5,576.9,220.6z"/>
		<path class="st4" d="M347.5,772.5c-0.7,11.9,8,18.5,19.1,18.5H393c0.8,0,1.5-0.7,1.5-1.5s-0.7-1.5-1.5-1.5h-21.8
			c-2.5,0-5,0.1-7.4,0c-8.6-0.5-13.8-7.1-13.3-15.5C350.6,770.6,347.6,770.6,347.5,772.5z"/>
		<path class="st4" d="M240.5,757.5c0.5,8.4-4.7,15-13.3,15.5c-2.5,0.1-5,0-7.4,0H198c-0.8,0-1.5,0.7-1.5,1.5s0.7,1.5,1.5,1.5h26.4
			c11.1,0,19.8-6.5,19.1-18.5C243.4,755.6,240.4,755.6,240.5,757.5z"/>
		<path class="st21" d="M214.6,458.5c-15.5-7-30-16-43.2-26.6c-0.7-0.6-1.8,0.5-1.1,1.1c13.3,10.8,27.9,19.8,43.5,26.9
			C214.7,460.2,215.5,458.9,214.6,458.5z"/>
		<path class="st21" d="M397.8,526.5c3.7,49.7,3.5,100.6-2.5,150c-2.3,18.8-5.6,37.7-11.4,55.8c-0.3,0.9,1.1,1.3,1.4,0.4
			c10.4-32.4,13.5-67.1,15.2-100.9c1.4-29.2,1.2-58.5-0.1-87.7c-0.3-5.8-0.6-11.7-1-17.5C399.2,525.5,397.7,525.5,397.8,526.5
			L397.8,526.5z"/>
		<path class="st21" d="M59.8,265.7c5.1,15.8,12.7,31,20.5,45.5c18.5,34.4,42.4,65.5,70.8,92.4c20.4,19.1,43.1,35.5,67.7,48.8
			c0.9,0.5,1.6-0.8,0.8-1.3c-68.2-36.7-121.8-98.9-152.1-169.8c-2.2-5.2-4.4-10.5-6.2-15.9C60.9,264.4,59.5,264.8,59.8,265.7
			L59.8,265.7z"/>
		<path class="st21" d="M323.8,412.1c-1.1,11.7-19.2,13.7-28,13.4s-26.7-3.8-26.9-15.5c-0.1-0.3-0.4-0.4-0.6-0.4
			c-0.2,0-0.3,0.2-0.4,0.4c0.2,12.5,18.4,16.2,27.9,16.6s27.9-2,29.1-14.4c0.1-0.7-1-0.7-1,0H323.8z"/>
		<path class="st21" d="M371,487c17.5,20.1,33.9,46,37.9,72.7c0.1,1,1.6,0.5,1.4-0.4c-2.7-18-11.3-34.7-21-49.8
			c-5.2-8.3-11-16.1-17.4-23.5C371.4,485.3,370.3,486.3,371,487L371,487z"/>
		<g class="st12">
			<rect x="526" y="669" class="st2" width="5" height="12"/>
		</g>
		<g class="st12">
			<rect x="526" y="575" class="st2" width="5" height="12"/>
		</g>
		<g class="st12">
			<rect x="568" y="628" class="st2" width="12" height="5"/>
		</g>
		<circle class="st27" cx="490.1" cy="241.2" r="10"/>
		<circle class="st27" cx="516.5" cy="249" r="10"/>
		<circle class="st27" cx="542.9" cy="256.8" r="10"/>
		<path class="st11" d="M148,84.2c2.2-1.1,4.4-2.1,6.6-3c1.6-0.5,2.5-2.1,2.1-3.7c-0.4-1.4-2.2-2.7-3.7-2.1
			c-2.7,1.1-5.4,2.3-8.1,3.6C141.5,80.8,144.6,86,148,84.2L148,84.2z"/>
		<path class="st11" d="M109.3,117.3c7-9.6,16.2-18,25.7-25c3.1-2.3,0.1-7.5-3-5.2c-10.4,7.6-20.2,16.7-27.8,27.2
			C101.9,117.4,107.1,120.4,109.3,117.3L109.3,117.3z"/>
		<path class="st1" d="M449.7,340.5c-0.3,6.6-5.3,12.2-12.2,12.2c-6.7,0-12.2-5.5-12.2-12.2c0-6.7,5.4-12.2,12.2-12.2
			C444.4,328.3,449.4,333.9,449.7,340.5c0.1,2.3,3.8,2.4,3.7,0c-0.4-8.6-6.9-15.8-15.8-15.8c-8.7,0-15.8,7.1-15.8,15.8
			c0,8.7,7.1,15.8,15.8,15.8c8.9,0,15.4-7.2,15.8-15.8C453.4,338.1,449.8,338.2,449.7,340.5z"/>
		<path class="st1" d="M36.7,527.5c-0.3,6.6-5.3,12.2-12.2,12.2c-6.7,0-12.2-5.4-12.2-12.2c0-6.7,5.4-12.2,12.2-12.2
			C31.3,515.3,36.4,520.9,36.7,527.5c0.1,2.3,3.8,2.3,3.7,0c-0.4-8.6-6.9-15.8-15.8-15.8c-8.7,0-15.8,7.1-15.8,15.8
			s7.1,15.8,15.8,15.8c8.9,0,15.4-7.2,15.8-15.8C40.4,525.2,36.8,525.2,36.7,527.5z"/>
		<path class="st28" d="M222,728c0,0,72,65,152,14"/>
		
			<ellipse transform="matrix(0.6292 -0.7773 0.7773 0.6292 -134.4607 116.1552)" class="st29" cx="54.5" cy="199" rx="16" ry="10.5"/>
		<circle class="st29" cx="79" cy="192" r="3"/>
	</g>
</g>
</svg>
